<svg width="24" height="24" viewBox="0 0 24 24" fill="none" xmlns="http://www.w3.org/2000/svg">
<path d="M12 12C14.7614 12 17 9.76142 17 7C17 4.23858 14.7614 2 12 2C9.23858 2 7 4.23858 7 7C7 9.76142 9.23858 12 12 12Z" stroke="black" stroke-width="1.5" stroke-linecap="round" stroke-linejoin="round"/>
<path d="M20 20C20 17.8783 19.1571 15.8434 17.6569 14.3431C16.1566 12.8429 14.1217 12 12 12C9.87827 12 7.84344 12.8429 6.34315 14.3431C4.84285 15.8434 4 17.8783 4 20" stroke="black" stroke-width="1.5" stroke-linecap="round" stroke-linejoin="round"/>
<path d="M11 15L9.51823 12.7774C9.29672 12.4451 9.53491 12 9.93426 12H14.1261C14.5127 12 14.753 12.4201 14.5571 12.7534L13.2364 15M11 15H13.2364M11 15L9.66614 18.9301C9.59464 19.1408 9.67093 19.3733 9.85332 19.5007L11.7269 20.8093C11.8923 20.9248 12.1109 20.9296 12.2812 20.8215L14.3676 19.4968C14.5626 19.373 14.6474 19.1317 14.5727 18.9131L13.2364 15" stroke="black" stroke-width="1.5"/>
</svg>
