<svg width="1792" height="1427" viewBox="0 0 1792 1427" fill="none" xmlns="http://www.w3.org/2000/svg">
<path d="M320.275 720.187C338.45 719.969 360.739 719.663 378.694 721.094L378.75 931.186C378.75 941.227 379.709 996.593 377.279 1001L325.465 1000.9C301.576 969.574 278.215 936.641 254.604 904.96C232.552 875.374 207.755 843.986 186.968 813.71C188.519 868.386 186.761 923.585 187.597 978.325C187.711 985.76 187.44 993.297 187.117 1000.73L128.501 1000.94C127.315 908.383 128.359 813.084 128.415 720.366C147.253 720.161 166.093 720.135 184.931 720.289C196.948 737.803 212.078 756.045 224.724 773.419C255.872 816.214 290.148 859.06 320.559 902.162C319.92 841.508 319.825 780.841 320.275 720.187Z" fill="white"/>
<path d="M830.678 720.042C846.773 719.825 866.768 717.449 882.349 720.693C883.268 720.885 886.155 721.332 886.947 721.907C890.229 724.232 1013.98 892.377 1023.14 907.015C1021.85 883.283 1022.61 856.817 1022.62 832.854L1022.46 719.978C1041.88 720.119 1061.3 720.119 1080.72 719.978L1080.94 1000.31L1077.97 1000.77L1025.61 1000.66C1005.67 975.275 985.155 946.063 965.743 919.839C939.984 885.02 912.552 849.574 887.61 814.397C887.163 876.602 887.151 938.795 887.585 1001C870.191 1000.14 848.681 1000.73 830.991 1000.76C828.777 974.317 830.73 924.004 830.784 896.286C830.319 837.542 830.283 778.786 830.678 720.042Z" fill="white"/>
<path d="M444.937 720.568C464.393 719.367 493.514 720.453 513.74 720.389C560.802 720.134 607.867 720.236 654.928 720.683L654.937 771.66C604.586 771.354 554.234 771.481 503.886 772.056L503.959 840.213C519.209 840.239 630.183 839.434 634.151 841.273L634.462 847.494L634.471 891.216L503.938 891.203L503.903 1000.94L445.137 1001C446.503 910.593 446.123 810.95 444.937 720.568Z" fill="white"/>
<path d="M1517.94 720.133C1538.68 719.941 1565.48 719.788 1585.99 720.938C1589.86 726.381 1594.26 733.817 1597.49 739.72C1614.74 771.267 1636.66 802.52 1652.86 834.45L1722.48 720.951C1744.07 720.056 1768.16 720.478 1789.94 720.414C1768.34 750.964 1744.64 791.838 1723.49 824.139C1713.29 842.065 1694.58 869.472 1683 887.514C1683.09 925.577 1682.58 962.86 1683.05 1001L1623.96 1000.99C1622.71 989.347 1623.18 971.6 1623.16 959.436L1623.18 887.641L1554.47 779.956C1543.65 762.885 1527.06 737.651 1517.94 720.133Z" fill="white"/>
<path d="M1256.44 720.192L1491.94 720L1491.51 773.3C1463.52 773.734 1434.65 773.44 1406.58 773.491L1406.42 919.51C1406.01 946.594 1406.11 973.678 1406.69 1000.76C1387.24 1001.22 1366.29 1000.87 1346.72 1000.9C1345.53 926.143 1346.35 848.456 1346.21 773.491L1256.27 773.338C1256.02 756.926 1255.59 736.284 1256.44 720.192Z" fill="white"/>
<path d="M1150.94 720C1170.14 720.987 1190.14 720.372 1209.48 720.538C1210.42 757.227 1209.63 794.557 1209.6 831.272L1209.74 1001.26C1196.37 1002.63 1165.05 1001.7 1150.99 1001.58L1150.94 720Z" fill="white"/>
<path d="M3.41607 720.013C22.867 720.179 42.3204 720.179 61.7714 720L61.937 1001C43.1948 1000.41 22.1494 1000.9 3.2338 1000.92C2.38495 928.944 3.68499 856.71 3.12419 784.706C2.95722 763.231 2.97507 741.475 3.41607 720.013Z" fill="white"/>
<path d="M706.237 720.312C725.79 719.878 745.351 719.89 764.902 720.389L764.937 1001L706.347 1000.91C705.321 907.872 706.587 813.555 706.237 720.312Z" fill="white"/>
<path d="M1144.24 108.506L1146.61 108.441C1208.64 106.865 1264.67 127.179 1309.75 170.268C1353.57 211.726 1378.89 269.051 1380.02 329.363C1382.08 394.804 1357.67 458.313 1312.3 505.519C1269.87 550.284 1211.35 576.285 1149.69 577.763C1116.46 578.141 1083.51 571.682 1052.88 558.789C1024.02 546.946 1002.7 534.684 978.6 515.068C872.119 428.377 769.175 215.2 614.261 218.353C575.624 218.769 538.769 234.669 511.955 262.49C483.877 291.719 468.813 331.059 470.186 371.566C471.397 411.638 488.306 449.631 517.267 477.353C549.343 507.247 591.845 523.399 635.679 522.353C656.578 521.711 673.625 517.473 692.957 509.983C754.823 486.014 789.02 436.539 832.185 391.104C844.058 404.166 857.641 418.685 868.21 432.813C859.206 446.106 829.464 478.088 817.823 489.668C803.743 503.265 789.289 516.829 773.429 528.474C714.444 571.781 638.864 589.822 567.845 568.055C523.521 554.47 480.894 524.979 453.483 487.126C420.764 442.834 407.272 387.227 416.055 332.865C425.313 278.017 456.013 229.105 501.382 196.921C541.789 168.619 587.132 155.677 636.413 160.558C665.569 163.66 693.929 171.98 720.139 185.121C800.282 225.901 877.08 318.529 935.92 385.819C960.33 413.735 983.09 443.778 1011.59 468.059C1039.04 491.44 1078.21 512.262 1113.93 518.572C1087.21 498.862 1070.24 472.036 1057.62 441.816C1046.46 444.36 1038.26 447.141 1027.45 450.78C1021.65 444.842 1012.88 436.374 1007.95 430.077C1021.06 425.055 1034.4 420.642 1047.92 416.853C1039.94 386.186 1037.2 370.792 1035.09 338.952L959.85 339.158C960.03 352.011 962.35 367.072 964.85 379.639C954.97 366.915 936.27 345.965 928.17 334.159C928.15 210.217 1022.32 117.041 1144.24 108.506ZM1254.52 417.919C1274.54 423.399 1294.07 430.542 1312.91 439.276L1321.79 425.829C1339.7 396.5 1344.82 372.728 1348.45 338.952C1322.56 339.32 1292.65 339.735 1266.9 338.975C1266.85 363.149 1261.78 395.09 1254.52 417.919ZM1240.75 339.281L1165.9 339.108L1165.88 403.204C1189.19 405.324 1206.03 408.591 1228.4 411.659C1229.27 408.552 1230.2 404.581 1231.43 401.682C1236.23 380.216 1240.11 361.429 1240.75 339.281ZM1028.15 198.276C1038.38 202.293 1047.62 205.238 1058.07 208.568C1063.7 193.383 1074.34 176.053 1084.13 163.009C1086.49 159.865 1096.37 149.672 1096.61 147.233C1061.77 159.306 1044.82 169.795 1017.54 193.501L1028.15 198.276ZM1232.58 506.042C1258.48 494.462 1275.28 480.592 1295.08 460.535C1275.49 452.269 1265.74 449.007 1245.39 442.743C1232.95 471.244 1215.12 497.974 1192.07 519.069C1204.65 516.814 1221.05 511.834 1232.58 506.042ZM1082.85 435.374C1092.74 454.278 1102.35 471.148 1117.89 486.328C1125.08 492.98 1133.77 499.134 1140.02 505.204L1140.05 429.569C1137.49 429.693 1129.26 429.913 1127.24 430.428C1111.55 431.314 1097.77 434.155 1082.85 435.374ZM1292.71 312.904L1348.41 313.056C1344.47 280.13 1330.89 239.384 1309.25 213.737L1308.08 213.275L1306.59 214.04C1299.74 217.509 1254.22 234.318 1253.69 234.909C1255.22 243.367 1258.41 252.907 1260.36 261.905C1264.19 279.484 1265.83 295.152 1267.05 313.045L1292.71 312.904ZM997.76 214.617C975.2 242.691 961.89 277.063 959.66 313.009L1014.21 312.992L1035.68 313.008C1036.87 287.531 1040.77 257.883 1049.09 233.65C1038.36 230.323 1027.78 226.537 1017.37 222.302C1014.3 221.084 999.68 214.988 997.76 214.617ZM1090.21 215.692C1107.97 218.227 1122.26 219.274 1140.06 220.222C1140.07 209.399 1140.71 151.149 1139.47 145.713C1123.38 158.678 1089.24 193.568 1084.87 213.499C1086.65 215.531 1086.92 214.98 1090.21 215.692ZM1182.46 312.961L1240.34 312.977C1239.82 298.155 1233.87 250.2 1226.7 240.47L1225.27 240.316C1202.53 244.712 1188.82 245.503 1165.91 247.143L1165.96 313.124L1182.46 312.961ZM1140.06 339.009C1113.94 339.217 1087.83 339.223 1061.72 339.027C1064.4 367.862 1067.35 383.537 1074.29 411.48C1092.56 407.675 1116.47 404.223 1135.16 403.742L1139 403.077C1141.19 399.099 1140.06 347.233 1140.06 339.009ZM1165.95 504.975C1177.58 495.085 1184.56 489.171 1194.66 477.565C1204.5 463.967 1213.17 452.147 1219.58 436.38C1200.7 433.517 1184.93 431.009 1165.91 429.874L1165.95 504.975ZM1075.03 239.67C1067.7 262.324 1062.73 289.198 1062.75 313.078C1084.65 312.809 1106.56 312.755 1128.46 312.915L1140.04 312.97L1140.06 246.962C1126.52 246.725 1113.01 245.503 1099.65 243.305C1093.48 242.35 1080.55 239.635 1075.03 239.67ZM1243.95 209.121C1255.6 205.695 1265.8 201.738 1277.18 197.683L1289.58 192.259C1267.45 173.318 1232.7 149.189 1203.37 145.194C1222.03 167.563 1231.86 182.359 1243.95 209.121ZM1166.02 146.562L1165.94 220.198C1184.07 219.084 1196.77 218.228 1214.74 215.31L1217.34 214.358C1212.73 195.238 1182.55 158.476 1166.02 146.562Z" fill="url(#paint0_linear_1115_2779)"/>
<path d="M1144.5 108.15L1146.87 108.085C1208.9 106.509 1264.93 126.823 1310.01 169.912C1353.83 211.37 1379.15 268.696 1380.28 329.008C1382.34 394.449 1357.93 457.957 1312.56 505.163C1270.13 549.928 1211.61 575.929 1149.95 577.407C1116.72 577.785 1083.77 571.326 1053.14 558.433C1024.28 546.59 1002.96 534.328 978.864 514.712C960.109 504.848 959.924 442.388 1011.85 467.703C1039.3 491.084 1078.47 511.906 1114.19 518.216C1087.47 498.506 1070.5 471.681 1057.88 441.461C1046.72 444.005 1038.52 446.785 1027.71 450.424C1021.91 444.486 1013.14 436.018 1008.21 429.721C1021.32 424.699 1034.66 420.286 1048.18 416.497C1040.2 385.83 1037.46 370.436 1035.35 338.596L960.114 338.802C960.294 351.655 962.614 366.716 965.114 379.283C955.234 366.559 936.534 345.609 928.434 333.803C928.414 209.861 1022.58 116.685 1144.5 108.15ZM1254.78 417.563C1274.8 423.043 1294.33 430.186 1313.17 438.92L1322.05 425.474C1339.96 396.145 1345.08 372.372 1348.71 338.596C1322.82 338.964 1292.91 339.38 1267.16 338.62C1267.11 362.794 1262.04 394.734 1254.78 417.563ZM1241.01 338.925L1166.16 338.753L1166.14 402.849C1189.45 404.969 1206.29 408.235 1228.66 411.303C1229.53 408.196 1230.46 404.225 1231.69 401.326C1236.49 379.86 1240.37 361.073 1241.01 338.925ZM1028.41 197.92C1038.64 201.937 1047.88 204.882 1058.33 208.212C1063.96 193.027 1074.6 175.698 1084.39 162.654C1086.75 159.51 1096.63 149.317 1096.87 146.878C1062.03 158.951 1045.08 169.439 1017.8 193.145L1028.41 197.92ZM1232.84 505.686C1258.74 494.106 1275.54 480.236 1295.34 460.179C1275.75 451.913 1266 448.652 1245.65 442.388C1233.21 470.889 1215.38 497.619 1192.33 518.714C1204.91 516.459 1221.31 511.478 1232.84 505.686ZM1083.11 435.018C1093 453.922 1102.61 470.792 1118.15 485.972C1125.34 492.624 1134.03 498.778 1140.28 504.848L1140.31 429.213C1137.75 429.337 1129.52 429.558 1127.5 430.073C1111.81 430.959 1098.03 433.799 1083.11 435.018ZM1292.97 312.548L1348.67 312.7C1344.73 279.774 1331.15 239.028 1309.51 213.381L1308.34 212.919L1306.85 213.684C1300 217.153 1254.48 233.962 1253.95 234.553C1255.48 243.011 1258.67 252.551 1260.62 261.549C1264.45 279.128 1266.09 294.796 1267.31 312.689L1292.97 312.548ZM998.024 214.261C975.464 242.335 962.154 276.707 959.924 312.653L1014.47 312.636L1035.94 312.652C1037.13 287.175 1041.03 257.527 1049.35 233.294C1038.62 229.967 1028.04 226.181 1017.63 221.946C1014.56 220.728 999.944 214.632 998.024 214.261ZM1090.47 215.336C1108.23 217.871 1122.52 218.918 1140.32 219.866C1140.33 209.043 1140.97 150.793 1139.73 145.357C1123.64 158.322 1089.5 193.212 1085.13 213.143C1086.91 215.175 1087.18 214.624 1090.47 215.336ZM1182.72 312.605L1240.6 312.621C1240.08 297.799 1234.13 249.845 1226.96 240.115L1225.53 239.961C1202.79 244.357 1189.08 245.147 1166.17 246.787L1166.22 312.768L1182.72 312.605ZM1140.32 338.654C1114.2 338.862 1088.09 338.867 1061.98 338.671C1064.66 367.506 1067.61 383.182 1074.55 411.125C1092.82 407.32 1116.73 403.867 1135.42 403.386L1139.26 402.721C1141.45 398.743 1140.32 346.878 1140.32 338.654ZM1166.21 504.62C1177.84 494.73 1184.82 488.815 1194.92 477.209C1204.76 463.611 1213.43 451.791 1219.84 436.024C1200.96 433.161 1185.19 430.653 1166.17 429.518L1166.21 504.62ZM1075.29 239.314C1067.96 261.968 1062.99 288.842 1063.01 312.722C1084.91 312.453 1106.82 312.399 1128.72 312.559L1140.3 312.614L1140.32 246.606C1126.78 246.369 1113.27 245.147 1099.91 242.949C1093.74 241.994 1080.81 239.279 1075.29 239.314ZM1244.21 208.765C1255.86 205.339 1266.06 201.382 1277.44 197.327L1289.84 191.903C1267.71 172.962 1232.96 148.833 1203.63 144.838C1222.29 167.207 1232.12 182.003 1244.21 208.765ZM1166.28 146.206L1166.2 219.842C1184.33 218.728 1197.03 217.872 1215 214.954L1217.6 214.003C1212.99 194.883 1182.81 158.12 1166.28 146.206Z" fill="url(#paint1_linear_1115_2779)"/>
<path d="M100.326 1137.95C99.1896 1134.27 97.6215 1130.98 95.6215 1128.07C93.6669 1125.11 91.3033 1122.59 88.5305 1120.5C85.8033 1118.41 82.6669 1116.84 79.1215 1115.8C75.576 1114.7 71.7124 1114.16 67.5305 1114.16C60.0305 1114.16 53.3487 1116.05 47.4851 1119.82C41.6215 1123.59 37.0078 1129.14 33.6442 1136.45C30.326 1143.73 28.6669 1152.59 28.6669 1163.05C28.6669 1173.59 30.326 1182.52 33.6442 1189.84C36.9624 1197.16 41.576 1202.73 47.4851 1206.55C53.3942 1210.32 60.2578 1212.2 68.076 1212.2C75.1669 1212.2 81.3033 1210.84 86.4851 1208.11C91.7124 1205.39 95.7351 1201.52 98.5533 1196.52C101.371 1191.48 102.781 1185.57 102.781 1178.8L108.508 1179.68H70.5987V1159.91H127.258V1176.68C127.258 1188.64 124.712 1198.98 119.621 1207.7C114.531 1216.43 107.531 1223.16 98.6215 1227.89C89.7124 1232.57 79.4851 1234.91 67.9396 1234.91C55.076 1234.91 43.7805 1232.02 34.0533 1226.25C24.3714 1220.43 16.8033 1212.18 11.3487 1201.5C5.93963 1190.77 3.23509 1178.05 3.23509 1163.32C3.23509 1152.05 4.82599 1141.98 8.00781 1133.11C11.2351 1124.25 15.7351 1116.73 21.5078 1110.55C27.2805 1104.32 34.0533 1099.59 41.826 1096.36C49.5987 1093.09 58.0533 1091.45 67.1896 1091.45C74.9169 1091.45 82.1215 1092.59 88.8033 1094.86C95.4851 1097.09 101.417 1100.27 106.599 1104.41C111.826 1108.55 116.121 1113.45 119.485 1119.14C122.849 1124.82 125.053 1131.09 126.099 1137.95H100.326ZM151.718 1233V1093.36H177.013V1211.8H238.513V1233H151.718ZM379.803 1163.18C379.803 1178.23 376.985 1191.11 371.349 1201.84C365.758 1212.52 358.121 1220.7 348.44 1226.39C338.803 1232.07 327.871 1234.91 315.644 1234.91C303.417 1234.91 292.462 1232.07 282.781 1226.39C273.144 1220.66 265.508 1212.45 259.871 1201.77C254.281 1191.05 251.485 1178.18 251.485 1163.18C251.485 1148.14 254.281 1135.27 259.871 1124.59C265.508 1113.86 273.144 1105.66 282.781 1099.98C292.462 1094.3 303.417 1091.45 315.644 1091.45C327.871 1091.45 338.803 1094.3 348.44 1099.98C358.121 1105.66 365.758 1113.86 371.349 1124.59C376.985 1135.27 379.803 1148.14 379.803 1163.18ZM354.371 1163.18C354.371 1152.59 352.712 1143.66 349.394 1136.39C346.121 1129.07 341.576 1123.55 335.758 1119.82C329.94 1116.05 323.235 1114.16 315.644 1114.16C308.053 1114.16 301.349 1116.05 295.531 1119.82C289.712 1123.55 285.144 1129.07 281.826 1136.39C278.553 1143.66 276.917 1152.59 276.917 1163.18C276.917 1173.77 278.553 1182.73 281.826 1190.05C285.144 1197.32 289.712 1202.84 295.531 1206.61C301.349 1210.34 308.053 1212.2 315.644 1212.2C323.235 1212.2 329.94 1210.34 335.758 1206.61C341.576 1202.84 346.121 1197.32 349.394 1190.05C352.712 1182.73 354.371 1173.77 354.371 1163.18ZM403.718 1233V1093.36H457.173C467.263 1093.36 475.65 1094.95 482.332 1098.14C489.059 1101.27 494.082 1105.57 497.4 1111.02C500.763 1116.48 502.445 1122.66 502.445 1129.57C502.445 1135.25 501.354 1140.11 499.173 1144.16C496.991 1148.16 494.059 1151.41 490.377 1153.91C486.695 1156.41 482.582 1158.2 478.036 1159.3V1160.66C482.991 1160.93 487.741 1162.45 492.286 1165.23C496.877 1167.95 500.627 1171.82 503.536 1176.82C506.445 1181.82 507.9 1187.86 507.9 1194.95C507.9 1202.18 506.15 1208.68 502.65 1214.45C499.15 1220.18 493.877 1224.7 486.832 1228.02C479.786 1231.34 470.923 1233 460.241 1233H403.718ZM429.013 1211.86H456.218C465.4 1211.86 472.013 1210.11 476.059 1206.61C480.15 1203.07 482.195 1198.52 482.195 1192.98C482.195 1188.84 481.173 1185.11 479.127 1181.8C477.082 1178.43 474.173 1175.8 470.4 1173.89C466.627 1171.93 462.127 1170.95 456.9 1170.95H429.013V1211.86ZM429.013 1152.75H454.036C458.4 1152.75 462.332 1151.95 465.832 1150.36C469.332 1148.73 472.082 1146.43 474.082 1143.48C476.127 1140.48 477.15 1136.93 477.15 1132.84C477.15 1127.43 475.241 1122.98 471.423 1119.48C467.65 1115.98 462.036 1114.23 454.582 1114.23H429.013V1152.75ZM547.837 1233H520.837L569.996 1093.36H601.224L650.451 1233H623.451L586.156 1122H585.065L547.837 1233ZM548.724 1178.25H622.36V1198.57H548.724V1178.25ZM668.843 1233V1093.36H694.138V1211.8H755.638V1233H668.843ZM901.104 1131.75C900.468 1125.8 897.786 1121.16 893.059 1117.84C888.377 1114.52 882.286 1112.86 874.786 1112.86C869.513 1112.86 864.991 1113.66 861.218 1115.25C857.445 1116.84 854.559 1119 852.559 1121.73C850.559 1124.45 849.536 1127.57 849.491 1131.07C849.491 1133.98 850.15 1136.5 851.468 1138.64C852.832 1140.77 854.673 1142.59 856.991 1144.09C859.309 1145.55 861.877 1146.77 864.695 1147.77C867.513 1148.77 870.354 1149.61 873.218 1150.3L886.309 1153.57C891.582 1154.8 896.65 1156.45 901.513 1158.55C906.423 1160.64 910.809 1163.27 914.673 1166.45C918.582 1169.64 921.673 1173.48 923.945 1177.98C926.218 1182.48 927.354 1187.75 927.354 1193.8C927.354 1201.98 925.263 1209.18 921.082 1215.41C916.9 1221.59 910.854 1226.43 902.945 1229.93C895.082 1233.39 885.559 1235.11 874.377 1235.11C863.513 1235.11 854.082 1233.43 846.082 1230.07C838.127 1226.7 831.9 1221.8 827.4 1215.34C822.945 1208.89 820.536 1201.02 820.173 1191.75H845.059C845.423 1196.61 846.923 1200.66 849.559 1203.89C852.195 1207.11 855.627 1209.52 859.854 1211.11C864.127 1212.7 868.9 1213.5 874.173 1213.5C879.673 1213.5 884.491 1212.68 888.627 1211.05C892.809 1209.36 896.082 1207.05 898.445 1204.09C900.809 1201.09 902.013 1197.59 902.059 1193.59C902.013 1189.95 900.945 1186.95 898.854 1184.59C896.763 1182.18 893.832 1180.18 890.059 1178.59C886.332 1176.95 881.968 1175.5 876.968 1174.23L861.082 1170.14C849.582 1167.18 840.491 1162.7 833.809 1156.7C827.173 1150.66 823.854 1142.64 823.854 1132.64C823.854 1124.41 826.082 1117.2 830.536 1111.02C835.036 1104.84 841.15 1100.05 848.877 1096.64C856.604 1093.18 865.354 1091.45 875.127 1091.45C885.036 1091.45 893.718 1093.18 901.173 1096.64C908.673 1100.05 914.559 1104.8 918.832 1110.89C923.104 1116.93 925.309 1123.89 925.445 1131.75H901.104ZM1074.68 1163.18C1074.68 1178.23 1071.86 1191.11 1066.22 1201.84C1060.63 1212.52 1053 1220.7 1043.31 1226.39C1033.68 1232.07 1022.75 1234.91 1010.52 1234.91C998.292 1234.91 987.337 1232.07 977.656 1226.39C968.019 1220.66 960.383 1212.45 954.746 1201.77C949.156 1191.05 946.36 1178.18 946.36 1163.18C946.36 1148.14 949.156 1135.27 954.746 1124.59C960.383 1113.86 968.019 1105.66 977.656 1099.98C987.337 1094.3 998.292 1091.45 1010.52 1091.45C1022.75 1091.45 1033.68 1094.3 1043.31 1099.98C1053 1105.66 1060.63 1113.86 1066.22 1124.59C1071.86 1135.27 1074.68 1148.14 1074.68 1163.18ZM1049.25 1163.18C1049.25 1152.59 1047.59 1143.66 1044.27 1136.39C1041 1129.07 1036.45 1123.55 1030.63 1119.82C1024.81 1116.05 1018.11 1114.16 1010.52 1114.16C1002.93 1114.16 996.224 1116.05 990.406 1119.82C984.587 1123.55 980.019 1129.07 976.701 1136.39C973.428 1143.66 971.792 1152.59 971.792 1163.18C971.792 1173.77 973.428 1182.73 976.701 1190.05C980.019 1197.32 984.587 1202.84 990.406 1206.61C996.224 1210.34 1002.93 1212.2 1010.52 1212.2C1018.11 1212.2 1024.81 1210.34 1030.63 1206.61C1036.45 1202.84 1041 1197.32 1044.27 1190.05C1047.59 1182.73 1049.25 1173.77 1049.25 1163.18ZM1098.59 1233V1093.36H1123.89V1211.8H1185.39V1233H1098.59ZM1295.37 1093.36H1320.66V1184.59C1320.66 1194.59 1318.3 1203.39 1313.57 1210.98C1308.89 1218.57 1302.3 1224.5 1293.8 1228.77C1285.3 1233 1275.37 1235.11 1264 1235.11C1252.59 1235.11 1242.64 1233 1234.14 1228.77C1225.64 1224.5 1219.05 1218.57 1214.37 1210.98C1209.68 1203.39 1207.34 1194.59 1207.34 1184.59V1093.36H1232.64V1182.48C1232.64 1188.3 1233.91 1193.48 1236.46 1198.02C1239.05 1202.57 1242.68 1206.14 1247.37 1208.73C1252.05 1211.27 1257.59 1212.55 1264 1212.55C1270.41 1212.55 1275.96 1211.27 1280.64 1208.73C1285.37 1206.14 1289 1202.57 1291.55 1198.02C1294.09 1193.48 1295.37 1188.3 1295.37 1182.48V1093.36ZM1342.02 1114.57V1093.36H1453.43V1114.57H1410.27V1233H1385.18V1114.57H1342.02ZM1500.2 1093.36V1233H1474.91V1093.36H1500.2ZM1652.37 1163.18C1652.37 1178.23 1649.55 1191.11 1643.91 1201.84C1638.32 1212.52 1630.68 1220.7 1621 1226.39C1611.37 1232.07 1600.43 1234.91 1588.21 1234.91C1575.98 1234.91 1565.02 1232.07 1555.34 1226.39C1545.71 1220.66 1538.07 1212.45 1532.43 1201.77C1526.84 1191.05 1524.05 1178.18 1524.05 1163.18C1524.05 1148.14 1526.84 1135.27 1532.43 1124.59C1538.07 1113.86 1545.71 1105.66 1555.34 1099.98C1565.02 1094.3 1575.98 1091.45 1588.21 1091.45C1600.43 1091.45 1611.37 1094.3 1621 1099.98C1630.68 1105.66 1638.32 1113.86 1643.91 1124.59C1649.55 1135.27 1652.37 1148.14 1652.37 1163.18ZM1626.93 1163.18C1626.93 1152.59 1625.27 1143.66 1621.96 1136.39C1618.68 1129.07 1614.14 1123.55 1608.32 1119.82C1602.5 1116.05 1595.8 1114.16 1588.21 1114.16C1580.62 1114.16 1573.91 1116.05 1568.09 1119.82C1562.27 1123.55 1557.71 1129.07 1554.39 1136.39C1551.12 1143.66 1549.48 1152.59 1549.48 1163.18C1549.48 1173.77 1551.12 1182.73 1554.39 1190.05C1557.71 1197.32 1562.27 1202.84 1568.09 1206.61C1573.91 1210.34 1580.62 1212.2 1588.21 1212.2C1595.8 1212.2 1602.5 1210.34 1608.32 1206.61C1614.14 1202.84 1618.68 1197.32 1621.96 1190.05C1625.27 1182.73 1626.93 1173.77 1626.93 1163.18ZM1791.03 1093.36V1233H1768.53L1702.74 1137.89H1701.58V1233H1676.28V1093.36H1698.92L1764.64 1188.55H1765.87V1093.36H1791.03Z" fill="white"/>
<path d="M19.2648 1401L-0.000133062 1332.82H16.3795L28.3646 1380.76H28.986L41.2374 1332.82H57.4395L69.6909 1380.49H70.3568L82.1643 1332.82H98.5883L79.279 1401H62.5443L49.7602 1354.92H48.828L36.0439 1401H19.2648ZM140.539 1402.33C133.703 1402.33 127.799 1400.91 122.828 1398.07C117.886 1395.2 114.083 1391.15 111.42 1385.91C108.757 1380.64 107.425 1374.44 107.425 1367.31C107.425 1360.3 108.757 1354.14 111.42 1348.84C114.113 1343.52 117.871 1339.37 122.695 1336.41C127.518 1333.42 133.185 1331.93 139.696 1331.93C143.898 1331.93 147.863 1332.61 151.592 1333.97C155.35 1335.3 158.665 1337.38 161.535 1340.19C164.435 1343 166.714 1346.58 168.371 1350.93C170.028 1355.25 170.857 1360.4 170.857 1366.38V1371.3H114.971V1360.47H155.454C155.424 1357.4 154.759 1354.66 153.456 1352.26C152.154 1349.83 150.334 1347.93 147.997 1346.53C145.688 1345.14 142.995 1344.45 139.918 1344.45C136.633 1344.45 133.748 1345.25 131.262 1346.85C128.776 1348.41 126.838 1350.49 125.447 1353.06C124.086 1355.6 123.39 1358.4 123.361 1361.45V1370.9C123.361 1374.87 124.086 1378.27 125.536 1381.11C126.986 1383.92 129.013 1386.09 131.617 1387.59C134.221 1389.07 137.269 1389.81 140.761 1389.81C143.099 1389.81 145.215 1389.49 147.109 1388.84C149.003 1388.16 150.645 1387.17 152.036 1385.86C153.427 1384.56 154.477 1382.95 155.188 1381.02L170.191 1382.71C169.244 1386.68 167.439 1390.14 164.776 1393.1C162.142 1396.03 158.768 1398.31 154.655 1399.93C150.542 1401.53 145.836 1402.33 140.539 1402.33ZM274.346 1350.84L259.697 1352.44C259.283 1350.96 258.558 1349.57 257.522 1348.27C256.516 1346.96 255.155 1345.91 253.438 1345.11C251.722 1344.31 249.621 1343.92 247.135 1343.92C243.791 1343.92 240.98 1344.64 238.701 1346.09C236.452 1347.54 235.342 1349.42 235.372 1351.73C235.342 1353.71 236.067 1355.32 237.547 1356.57C239.056 1357.81 241.542 1358.83 245.004 1359.63L256.634 1362.12C263.086 1363.51 267.88 1365.71 271.016 1368.73C274.183 1371.75 275.781 1375.7 275.81 1380.58C275.781 1384.87 274.523 1388.66 272.037 1391.94C269.581 1395.2 266.163 1397.74 261.783 1399.58C257.404 1401.41 252.373 1402.33 246.691 1402.33C238.346 1402.33 231.628 1400.59 226.538 1397.09C221.448 1393.57 218.415 1388.67 217.439 1382.4L233.108 1380.89C233.818 1383.97 235.327 1386.29 237.636 1387.86C239.944 1389.43 242.948 1390.21 246.647 1390.21C250.464 1390.21 253.527 1389.43 255.835 1387.86C258.173 1386.29 259.342 1384.35 259.342 1382.05C259.342 1380.09 258.587 1378.48 257.078 1377.21C255.599 1375.93 253.29 1374.96 250.153 1374.28L238.523 1371.84C231.983 1370.48 227.145 1368.18 224.008 1364.96C220.871 1361.7 219.318 1357.59 219.347 1352.62C219.318 1348.41 220.457 1344.77 222.765 1341.7C225.103 1338.59 228.344 1336.19 232.487 1334.5C236.659 1332.79 241.468 1331.93 246.913 1331.93C254.903 1331.93 261.192 1333.63 265.778 1337.04C270.395 1340.44 273.251 1345.04 274.346 1350.84ZM321.301 1402.33C314.643 1402.33 308.872 1400.87 303.99 1397.94C299.107 1395.01 295.319 1390.91 292.626 1385.64C289.963 1380.37 288.631 1374.22 288.631 1367.18C288.631 1360.13 289.963 1353.96 292.626 1348.67C295.319 1343.37 299.107 1339.25 303.99 1336.32C308.872 1333.4 314.643 1331.93 321.301 1331.93C327.96 1331.93 333.73 1333.4 338.613 1336.32C343.496 1339.25 347.269 1343.37 349.932 1348.67C352.625 1353.96 353.972 1360.13 353.972 1367.18C353.972 1374.22 352.625 1380.37 349.932 1385.64C347.269 1390.91 343.496 1395.01 338.613 1397.94C333.73 1400.87 327.96 1402.33 321.301 1402.33ZM321.39 1389.46C325 1389.46 328.019 1388.47 330.446 1386.48C332.872 1384.47 334.677 1381.78 335.861 1378.41C337.074 1375.03 337.681 1371.27 337.681 1367.13C337.681 1362.96 337.074 1359.19 335.861 1355.81C334.677 1352.41 332.872 1349.7 330.446 1347.69C328.019 1345.68 325 1344.67 321.39 1344.67C317.691 1344.67 314.613 1345.68 312.157 1347.69C309.731 1349.7 307.911 1352.41 306.697 1355.81C305.514 1359.19 304.922 1362.96 304.922 1367.13C304.922 1371.27 305.514 1375.03 306.697 1378.41C307.911 1381.78 309.731 1384.47 312.157 1386.48C314.613 1388.47 317.691 1389.46 321.39 1389.46ZM386.179 1310.09V1401H370.11V1310.09H386.179ZM466.105 1332.82L441.824 1401H424.069L399.788 1332.82H416.922L432.591 1383.47H433.302L449.015 1332.82H466.105ZM507.59 1402.33C500.754 1402.33 494.85 1400.91 489.879 1398.07C484.937 1395.2 481.134 1391.15 478.471 1385.91C475.807 1380.64 474.476 1374.44 474.476 1367.31C474.476 1360.3 475.807 1354.14 478.471 1348.84C481.164 1343.52 484.922 1339.37 489.746 1336.41C494.569 1333.42 500.236 1331.93 506.747 1331.93C510.949 1331.93 514.914 1332.61 518.643 1333.97C522.401 1335.3 525.716 1337.38 528.586 1340.19C531.486 1343 533.765 1346.58 535.422 1350.93C537.079 1355.25 537.908 1360.4 537.908 1366.38V1371.3H482.022V1360.47H522.505C522.475 1357.4 521.809 1354.66 520.507 1352.26C519.205 1349.83 517.385 1347.93 515.047 1346.53C512.739 1345.14 510.046 1344.45 506.969 1344.45C503.684 1344.45 500.798 1345.25 498.313 1346.85C495.827 1348.41 493.889 1350.49 492.498 1353.06C491.136 1355.6 490.441 1358.4 490.411 1361.45V1370.9C490.411 1374.87 491.136 1378.27 492.586 1381.11C494.036 1383.92 496.064 1386.09 498.668 1387.59C501.272 1389.07 504.32 1389.81 507.812 1389.81C510.15 1389.81 512.266 1389.49 514.16 1388.84C516.054 1388.16 517.696 1387.17 519.087 1385.86C520.478 1384.56 521.528 1382.95 522.238 1381.02L537.242 1382.71C536.295 1386.68 534.49 1390.14 531.826 1393.1C529.193 1396.03 525.819 1398.31 521.706 1399.93C517.592 1401.53 512.887 1402.33 507.59 1402.33ZM597.495 1426.57C595.306 1426.57 593.278 1426.39 591.414 1426.04C589.579 1425.71 588.115 1425.33 587.02 1424.88L590.748 1412.36C593.086 1413.04 595.172 1413.37 597.007 1413.34C598.842 1413.31 600.455 1412.73 601.846 1411.61C603.266 1410.51 604.465 1408.68 605.441 1406.1L606.817 1402.42L582.092 1332.82H599.138L614.852 1384.31H615.562L631.32 1332.82H648.41L621.11 1409.26C619.838 1412.87 618.151 1415.96 616.05 1418.53C613.949 1421.14 611.374 1423.12 608.326 1424.48C605.308 1425.87 601.698 1426.57 597.495 1426.57ZM689.451 1402.33C682.792 1402.33 677.022 1400.87 672.139 1397.94C667.256 1395.01 663.468 1390.91 660.775 1385.64C658.112 1380.37 656.78 1374.22 656.78 1367.18C656.78 1360.13 658.112 1353.96 660.775 1348.67C663.468 1343.37 667.256 1339.25 672.139 1336.32C677.022 1333.4 682.792 1331.93 689.451 1331.93C696.109 1331.93 701.88 1333.4 706.763 1336.32C711.645 1339.25 715.418 1343.37 718.082 1348.67C720.775 1353.96 722.121 1360.13 722.121 1367.18C722.121 1374.22 720.775 1380.37 718.082 1385.64C715.418 1390.91 711.645 1395.01 706.763 1397.94C701.88 1400.87 696.109 1402.33 689.451 1402.33ZM689.54 1389.46C693.15 1389.46 696.168 1388.47 698.595 1386.48C701.022 1384.47 702.827 1381.78 704.01 1378.41C705.224 1375.03 705.83 1371.27 705.83 1367.13C705.83 1362.96 705.224 1359.19 704.01 1355.81C702.827 1352.41 701.022 1349.7 698.595 1347.69C696.168 1345.68 693.15 1344.67 689.54 1344.67C685.84 1344.67 682.763 1345.68 680.307 1347.69C677.88 1349.7 676.06 1352.41 674.847 1355.81C673.663 1359.19 673.071 1362.96 673.071 1367.13C673.071 1371.27 673.663 1375.03 674.847 1378.41C676.06 1381.78 677.88 1384.47 680.307 1386.48C682.763 1388.47 685.84 1389.46 689.54 1389.46ZM781.717 1372.32V1332.82H797.786V1401H782.205V1388.88H781.495C779.956 1392.7 777.426 1395.82 773.904 1398.25C770.412 1400.67 766.107 1401.89 760.987 1401.89C756.519 1401.89 752.568 1400.9 749.135 1398.91C745.732 1396.9 743.069 1393.99 741.145 1390.17C739.222 1386.32 738.26 1381.68 738.26 1376.23V1332.82H754.329V1373.75C754.329 1378.07 755.512 1381.5 757.88 1384.04C760.247 1386.59 763.355 1387.86 767.202 1387.86C769.569 1387.86 771.862 1387.28 774.082 1386.13C776.301 1384.98 778.121 1383.26 779.542 1380.98C780.992 1378.67 781.717 1375.79 781.717 1372.32ZM816.81 1401V1332.82H832.39V1344.18H833.1C834.343 1340.25 836.474 1337.21 839.492 1335.08C842.541 1332.92 846.018 1331.84 849.924 1331.84C850.812 1331.84 851.803 1331.89 852.898 1331.97C854.023 1332.03 854.955 1332.14 855.695 1332.29V1347.07C855.014 1346.83 853.934 1346.62 852.454 1346.45C851.004 1346.24 849.598 1346.13 848.237 1346.13C845.307 1346.13 842.674 1346.77 840.336 1348.04C838.028 1349.29 836.208 1351.02 834.876 1353.24C833.544 1355.46 832.879 1358.02 832.879 1360.92V1401H816.81ZM912.364 1426.57C910.174 1426.57 908.147 1426.39 906.282 1426.04C904.448 1425.71 902.983 1425.33 901.888 1424.88L905.616 1412.36C907.954 1413.04 910.041 1413.37 911.875 1413.34C913.71 1413.31 915.323 1412.73 916.714 1411.61C918.134 1410.51 919.333 1408.68 920.309 1406.1L921.685 1402.42L896.961 1332.82H914.006L929.72 1384.31H930.43L946.188 1332.82H963.278L935.979 1409.26C934.706 1412.87 933.019 1415.96 930.918 1418.53C928.817 1421.14 926.243 1423.12 923.195 1424.48C920.176 1425.87 916.566 1426.57 912.364 1426.57ZM1004.32 1402.33C997.661 1402.33 991.89 1400.87 987.007 1397.94C982.124 1395.01 978.336 1390.91 975.644 1385.64C972.98 1380.37 971.648 1374.22 971.648 1367.18C971.648 1360.13 972.98 1353.96 975.644 1348.67C978.336 1343.37 982.124 1339.25 987.007 1336.32C991.89 1333.4 997.661 1331.93 1004.32 1331.93C1010.98 1331.93 1016.75 1333.4 1021.63 1336.32C1026.51 1339.25 1030.29 1343.37 1032.95 1348.67C1035.64 1353.96 1036.99 1360.13 1036.99 1367.18C1036.99 1374.22 1035.64 1380.37 1032.95 1385.64C1030.29 1390.91 1026.51 1395.01 1021.63 1397.94C1016.75 1400.87 1010.98 1402.33 1004.32 1402.33ZM1004.41 1389.46C1008.02 1389.46 1011.04 1388.47 1013.46 1386.48C1015.89 1384.47 1017.69 1381.78 1018.88 1378.41C1020.09 1375.03 1020.7 1371.27 1020.7 1367.13C1020.7 1362.96 1020.09 1359.19 1018.88 1355.81C1017.69 1352.41 1015.89 1349.7 1013.46 1347.69C1011.04 1345.68 1008.02 1344.67 1004.41 1344.67C1000.71 1344.67 997.631 1345.68 995.175 1347.69C992.748 1349.7 990.928 1352.41 989.715 1355.81C988.531 1359.19 987.939 1362.96 987.939 1367.13C987.939 1371.27 988.531 1375.03 989.715 1378.41C990.928 1381.78 992.748 1384.47 995.175 1386.48C997.631 1388.47 1000.71 1389.46 1004.41 1389.46ZM1096.59 1372.32V1332.82H1112.65V1401H1097.07V1388.88H1096.36C1094.82 1392.7 1092.29 1395.82 1088.77 1398.25C1085.28 1400.67 1080.97 1401.89 1075.86 1401.89C1071.39 1401.89 1067.44 1400.9 1064 1398.91C1060.6 1396.9 1057.94 1393.99 1056.01 1390.17C1054.09 1386.32 1053.13 1381.68 1053.13 1376.23V1332.82H1069.2V1373.75C1069.2 1378.07 1070.38 1381.5 1072.75 1384.04C1075.12 1386.59 1078.22 1387.86 1082.07 1387.86C1084.44 1387.86 1086.73 1387.28 1088.95 1386.13C1091.17 1384.98 1092.99 1383.26 1094.41 1380.98C1095.86 1378.67 1096.59 1375.79 1096.59 1372.32ZM1131.68 1401V1332.82H1147.26V1344.18H1147.97C1149.21 1340.25 1151.34 1337.21 1154.36 1335.08C1157.41 1332.92 1160.89 1331.84 1164.79 1331.84C1165.68 1331.84 1166.67 1331.89 1167.77 1331.97C1168.89 1332.03 1169.82 1332.14 1170.56 1332.29V1347.07C1169.88 1346.83 1168.8 1346.62 1167.32 1346.45C1165.87 1346.24 1164.47 1346.13 1163.11 1346.13C1160.18 1346.13 1157.54 1346.77 1155.2 1348.04C1152.9 1349.29 1151.08 1351.02 1149.74 1353.24C1148.41 1355.46 1147.75 1358.02 1147.75 1360.92V1401H1131.68ZM1217.24 1426.57V1332.82H1233.05V1344.09H1233.98C1234.81 1342.44 1235.98 1340.68 1237.49 1338.81C1238.99 1336.92 1241.04 1335.3 1243.61 1333.97C1246.19 1332.61 1249.47 1331.93 1253.47 1331.93C1258.73 1331.93 1263.48 1333.28 1267.71 1335.97C1271.98 1338.63 1275.35 1342.58 1277.84 1347.82C1280.35 1353.03 1281.61 1359.42 1281.61 1367C1281.61 1374.48 1280.38 1380.85 1277.92 1386.09C1275.47 1391.32 1272.12 1395.32 1267.89 1398.07C1263.66 1400.82 1258.87 1402.2 1253.51 1402.2C1249.6 1402.2 1246.36 1401.55 1243.79 1400.25C1241.21 1398.94 1239.14 1397.37 1237.57 1395.54C1236.04 1393.68 1234.84 1391.92 1233.98 1390.26H1233.31V1426.57H1217.24ZM1233 1366.91C1233 1371.32 1233.62 1375.18 1234.87 1378.49C1236.14 1381.81 1237.96 1384.4 1240.33 1386.26C1242.72 1388.1 1245.62 1389.01 1249.03 1389.01C1252.58 1389.01 1255.55 1388.07 1257.95 1386.17C1260.35 1384.25 1262.15 1381.63 1263.36 1378.32C1264.61 1374.97 1265.23 1371.17 1265.23 1366.91C1265.23 1362.68 1264.62 1358.92 1263.41 1355.63C1262.2 1352.35 1260.39 1349.77 1257.99 1347.91C1255.6 1346.05 1252.61 1345.11 1249.03 1345.11C1245.59 1345.11 1242.68 1346.02 1240.28 1347.82C1237.89 1349.63 1236.07 1352.16 1234.82 1355.41C1233.61 1358.67 1233 1362.5 1233 1366.91ZM1297.87 1401V1332.82H1313.45V1344.18H1314.16C1315.4 1340.25 1317.53 1337.21 1320.55 1335.08C1323.6 1332.92 1327.08 1331.84 1330.98 1331.84C1331.87 1331.84 1332.86 1331.89 1333.96 1331.97C1335.08 1332.03 1336.01 1332.14 1336.75 1332.29V1347.07C1336.07 1346.83 1334.99 1346.62 1333.51 1346.45C1332.06 1346.24 1330.66 1346.13 1329.3 1346.13C1326.37 1346.13 1323.73 1346.77 1321.4 1348.04C1319.09 1349.29 1317.27 1351.02 1315.94 1353.24C1314.6 1355.46 1313.94 1358.02 1313.94 1360.92V1401H1297.87ZM1376.86 1402.33C1370.2 1402.33 1364.43 1400.87 1359.55 1397.94C1354.67 1395.01 1350.88 1390.91 1348.19 1385.64C1345.52 1380.37 1344.19 1374.22 1344.19 1367.18C1344.19 1360.13 1345.52 1353.96 1348.19 1348.67C1350.88 1343.37 1354.67 1339.25 1359.55 1336.32C1364.43 1333.4 1370.2 1331.93 1376.86 1331.93C1383.52 1331.93 1389.29 1333.4 1394.17 1336.32C1399.06 1339.25 1402.83 1343.37 1405.49 1348.67C1408.19 1353.96 1409.53 1360.13 1409.53 1367.18C1409.53 1374.22 1408.19 1380.37 1405.49 1385.64C1402.83 1390.91 1399.06 1395.01 1394.17 1397.94C1389.29 1400.87 1383.52 1402.33 1376.86 1402.33ZM1376.95 1389.46C1380.56 1389.46 1383.58 1388.47 1386.01 1386.48C1388.43 1384.47 1390.24 1381.78 1391.42 1378.41C1392.64 1375.03 1393.24 1371.27 1393.24 1367.13C1393.24 1362.96 1392.64 1359.19 1391.42 1355.81C1390.24 1352.41 1388.43 1349.7 1386.01 1347.69C1383.58 1345.68 1380.56 1344.67 1376.95 1344.67C1373.25 1344.67 1370.17 1345.68 1367.72 1347.69C1365.29 1349.7 1363.47 1352.41 1362.26 1355.81C1361.08 1359.19 1360.48 1362.96 1360.48 1367.13C1360.48 1371.27 1361.08 1375.03 1362.26 1378.41C1363.47 1381.78 1365.29 1384.47 1367.72 1386.48C1370.17 1388.47 1373.25 1389.46 1376.95 1389.46ZM1426.38 1401V1310.09H1442.45V1344.09H1443.12C1443.95 1342.44 1445.11 1340.68 1446.62 1338.81C1448.13 1336.92 1450.17 1335.3 1452.75 1333.97C1455.32 1332.61 1458.61 1331.93 1462.6 1331.93C1467.87 1331.93 1472.62 1333.28 1476.85 1335.97C1481.11 1338.63 1484.49 1342.58 1486.97 1347.82C1489.49 1353.03 1490.75 1359.42 1490.75 1367C1490.75 1374.48 1489.52 1380.85 1487.06 1386.09C1484.61 1391.32 1481.26 1395.32 1477.03 1398.07C1472.8 1400.82 1468 1402.2 1462.65 1402.2C1458.74 1402.2 1455.5 1401.55 1452.93 1400.25C1450.35 1398.94 1448.28 1397.37 1446.71 1395.54C1445.17 1393.68 1443.98 1391.92 1443.12 1390.26H1442.18V1401H1426.38ZM1442.14 1366.91C1442.14 1371.32 1442.76 1375.18 1444 1378.49C1445.28 1381.81 1447.1 1384.4 1449.46 1386.26C1451.86 1388.1 1454.76 1389.01 1458.16 1389.01C1461.72 1389.01 1464.69 1388.07 1467.09 1386.17C1469.48 1384.25 1471.29 1381.63 1472.5 1378.32C1473.75 1374.97 1474.37 1371.17 1474.37 1366.91C1474.37 1362.68 1473.76 1358.92 1472.55 1355.63C1471.33 1352.35 1469.53 1349.77 1467.13 1347.91C1464.73 1346.05 1461.75 1345.11 1458.16 1345.11C1454.73 1345.11 1451.82 1346.02 1449.42 1347.82C1447.02 1349.63 1445.2 1352.16 1443.96 1355.41C1442.75 1358.67 1442.14 1362.5 1442.14 1366.91ZM1522.98 1310.09V1401H1506.91V1310.09H1522.98ZM1572.18 1402.33C1565.35 1402.33 1559.45 1400.91 1554.47 1398.07C1549.53 1395.2 1545.73 1391.15 1543.07 1385.91C1540.4 1380.64 1539.07 1374.44 1539.07 1367.31C1539.07 1360.3 1540.4 1354.14 1543.07 1348.84C1545.76 1343.52 1549.52 1339.37 1554.34 1336.41C1559.16 1333.42 1564.83 1331.93 1571.34 1331.93C1575.54 1331.93 1579.51 1332.61 1583.24 1333.97C1587 1335.3 1590.31 1337.38 1593.18 1340.19C1596.08 1343 1598.36 1346.58 1600.02 1350.93C1601.67 1355.25 1602.5 1360.4 1602.5 1366.38V1371.3H1546.62V1360.47H1587.1C1587.07 1357.4 1586.4 1354.66 1585.1 1352.26C1583.8 1349.83 1581.98 1347.93 1579.64 1346.53C1577.33 1345.14 1574.64 1344.45 1571.56 1344.45C1568.28 1344.45 1565.39 1345.25 1562.91 1346.85C1560.42 1348.41 1558.48 1350.49 1557.09 1353.06C1555.73 1355.6 1555.04 1358.4 1555.01 1361.45V1370.9C1555.01 1374.87 1555.73 1378.27 1557.18 1381.11C1558.63 1383.92 1560.66 1386.09 1563.26 1387.59C1565.87 1389.07 1568.91 1389.81 1572.41 1389.81C1574.74 1389.81 1576.86 1389.49 1578.75 1388.84C1580.65 1388.16 1582.29 1387.17 1583.68 1385.86C1585.07 1384.56 1586.12 1382.95 1586.83 1381.02L1601.84 1382.71C1600.89 1386.68 1599.08 1390.14 1596.42 1393.1C1593.79 1396.03 1590.41 1398.31 1586.3 1399.93C1582.19 1401.53 1577.48 1402.33 1572.18 1402.33ZM1618.6 1401V1332.82H1633.96V1344.4H1634.75C1636.17 1340.5 1638.53 1337.45 1641.81 1335.26C1645.1 1333.04 1649.02 1331.93 1653.58 1331.93C1658.19 1331.93 1662.08 1333.05 1665.25 1335.3C1668.45 1337.52 1670.69 1340.56 1672 1344.4H1672.71C1674.22 1340.62 1676.76 1337.6 1680.34 1335.35C1683.95 1333.07 1688.23 1331.93 1693.17 1331.93C1699.44 1331.93 1704.56 1333.91 1708.53 1337.88C1712.49 1341.84 1714.48 1347.63 1714.48 1355.23V1401H1698.36V1357.72C1698.36 1353.49 1697.24 1350.4 1694.99 1348.44C1692.74 1346.46 1689.99 1345.47 1686.73 1345.47C1682.86 1345.47 1679.82 1346.68 1677.63 1349.11C1675.47 1351.51 1674.39 1354.63 1674.39 1358.48V1401H1658.64V1357.05C1658.64 1353.53 1657.57 1350.72 1655.44 1348.62C1653.34 1346.52 1650.59 1345.47 1647.18 1345.47C1644.88 1345.47 1642.77 1346.06 1640.88 1347.24C1638.99 1348.4 1637.48 1350.04 1636.35 1352.17C1635.23 1354.27 1634.67 1356.73 1634.67 1359.54V1401H1618.6ZM1787.17 1350.84L1772.52 1352.44C1772.11 1350.96 1771.38 1349.57 1770.34 1348.27C1769.34 1346.96 1767.98 1345.91 1766.26 1345.11C1764.54 1344.31 1762.44 1343.92 1759.96 1343.92C1756.61 1343.92 1753.8 1344.64 1751.52 1346.09C1749.27 1347.54 1748.16 1349.42 1748.19 1351.73C1748.16 1353.71 1748.89 1355.32 1750.37 1356.57C1751.88 1357.81 1754.36 1358.83 1757.83 1359.63L1769.46 1362.12C1775.91 1363.51 1780.7 1365.71 1783.84 1368.73C1787.01 1371.75 1788.6 1375.7 1788.63 1380.58C1788.6 1384.87 1787.35 1388.66 1784.86 1391.94C1782.4 1395.2 1778.99 1397.74 1774.61 1399.58C1770.23 1401.41 1765.2 1402.33 1759.51 1402.33C1751.17 1402.33 1744.45 1400.59 1739.36 1397.09C1734.27 1393.57 1731.24 1388.67 1730.26 1382.4L1745.93 1380.89C1746.64 1383.97 1748.15 1386.29 1750.46 1387.86C1752.77 1389.43 1755.77 1390.21 1759.47 1390.21C1763.29 1390.21 1766.35 1389.43 1768.66 1387.86C1771 1386.29 1772.16 1384.35 1772.16 1382.05C1772.16 1380.09 1771.41 1378.48 1769.9 1377.21C1768.42 1375.93 1766.11 1374.96 1762.98 1374.28L1751.35 1371.84C1744.81 1370.48 1739.97 1368.18 1736.83 1364.96C1733.69 1361.7 1732.14 1357.59 1732.17 1352.62C1732.14 1348.41 1733.28 1344.77 1735.59 1341.7C1737.93 1338.59 1741.17 1336.19 1745.31 1334.5C1749.48 1332.79 1754.29 1331.93 1759.74 1331.93C1767.73 1331.93 1774.01 1333.63 1778.6 1337.04C1783.22 1340.44 1786.07 1345.04 1787.17 1350.84Z" fill="#F2B70B"/>
<defs>
<linearGradient id="paint0_linear_1115_2779" x1="290.434" y1="385" x2="1022.43" y2="578" gradientUnits="userSpaceOnUse">
<stop stop-color="#F0B809"/>
<stop offset="0.782069" stop-color="#F3B70B"/>
<stop offset="1" stop-color="white"/>
</linearGradient>
<linearGradient id="paint1_linear_1115_2779" x1="1216.43" y1="367" x2="1316.43" y2="609" gradientUnits="userSpaceOnUse">
<stop stop-color="white"/>
<stop stop-color="#0276AD" stop-opacity="0"/>
</linearGradient>
</defs>
</svg>
